# xmcd CD database file
#
# Track frame offsets:
#	150
#	25085
#	48246
#	69567
#	89739
#	109206
#	128583
#	159215
#	179814
#	209598
#	231099
#
# Disc length: 3170 seconds
#
# Revision: 1
# Processed by: cddbd v1.4PL0 Copyright (c) Steve Scherf et al.
# Submitted via: CDex 1.50
#
DISCID=970c600b
DTITLE=Rudy Schaaf Trio - One day in Jazz
DYEAR=2002
DGENRE=Jazz
TTITLE0=Question and answer
TTITLE1=Softly as in the morning sunrise
TTITLE2=Lucky southern
TTITLE3=Trademarks
TTITLE4=Waters of march
TTITLE5=Footprints
TTITLE6=Goodbye Pork Pie Hat
TTITLE7=Broadway Blues
TTITLE8=Peel me a grape
TTITLE9=Night in Tunesia
TTITLE10=Round midnight
EXTD=YEAR: 2002
EXTT0=
EXTT1=
EXTT2=
EXTT3=
EXTT4=
EXTT5=
EXTT6=
EXTT7=
EXTT8=
EXTT9=
EXTT10=
PLAYORDER=
